# xmcd
#
# Track frame offsets: 
#        150
#        13005
#        26135
#        39185
#        51637
#        62965
#        76022
#        90745
#        107467
#        121385
#        132697
#        146917
#
# Disc length: 2089 seconds
#
# Revision: 13
# Processed by: cddbd v1.5.2PL0 Copyright (c) Steve Scherf et al.
# Submitted via: ExactAudioCopyFreeDBPlugin 1.0
#
DISCID=a808270c
DTITLE=Frank Sinatra / Gold
DYEAR=1997
DGENRE=Vocal
TTITLE0=Young-At-Heart
TTITLE1=All ahe Way
TTITLE2=Witchcraft
TTITLE3=Nice 'N' Easy
TTITLE4=My Funny Valentine
TTITLE5=I Get a Kick Out of You
TTITLE6=The Lady Is a Tramp
TTITLE7=I've Got You Under My Skin
TTITLE8=Three Coins in the Fountain
TTITLE9=Same Old Saturday Night
TTITLE10=Don't Worry 'Bout Me
TTITLE11=Chicago
EXTD=EMI-Capitol Special Markets, When Sinatra formed the Reprise labe
EXTD=l in the sixties, he re-recorded most of his hits from the Capito
EXTD=l Years. This compilation appear to be the original Capitol versi
EXTD=on of some of his hits from those earlier years. YEAR: 1997
EXTT0=(Capitol Version)
EXTT1=(Capitol Version)
EXTT2=(Capitol Version)
EXTT3=(Capitol Version)
EXTT4=(Capitol Version)
EXTT5=(Capitol Version)
EXTT6=(Capitol Version)
EXTT7=(Capitol Version)
EXTT8=(Capitol Version)
EXTT9=(Capitol Version)
EXTT10=(Capitol Version)
EXTT11=(Capitol Version)
PLAYORDER=
.
